<?xml version="1.0" encoding="UTF-8"?> <svg xmlns="http://www.w3.org/2000/svg" viewBox="0 0 313.03 284.51"><defs><style>.cls-1,.cls-7{fill:#878183;}.cls-2{fill:#ebebeb;}.cls-3,.cls-6,.cls-8{fill:#fff;}.cls-3,.cls-4,.cls-6,.cls-7,.cls-8{stroke:#000;}.cls-3,.cls-4,.cls-7,.cls-8{stroke-linejoin:bevel;}.cls-3{stroke-width:2px;}.cls-4{fill:#e3e3e3;}.cls-4,.cls-6,.cls-7,.cls-8,.cls-9{stroke-width:1.2px;}.cls-4,.cls-5,.cls-6,.cls-7,.cls-8,.cls-9{fill-rule:evenodd;}.cls-5,.cls-9{fill:#2646ff;}.cls-6,.cls-9{stroke-linejoin:round;}.cls-9{stroke:#2646ff;}</style></defs><title>bad-downloads</title><g id="Layer_2" data-name="Layer 2"><g id="Layer_2-2" data-name="Layer 2"><polygon class="cls-1" points="156.53 266.26 156.53 266.26 312.53 176.18 312.53 194.43 156.53 284.51 156.53 284.51 156.53 266.26"></polygon><polygon class="cls-2" points="0.5 176.18 156.53 266.26 156.53 266.26 156.53 284.51 156.53 284.51 0.5 194.43 0.5 176.18"></polygon><polygon class="cls-3" points="156.51 85.69 156.51 85.69 312.53 176.18 156.53 266.26 156.53 266.26 0.5 176.18 156.51 85.69"></polygon><polygon class="cls-4" points="186.51 15.51 195.53 10.95 253.04 39.7 244.03 44.26 186.51 15.51 186.51 15.51"></polygon><polygon class="cls-4" points="170.02 32.72 186.51 15.51 244.03 44.26 244.03 69.72 244.03 76.68 244.03 188.52 118.63 125.82 125.63 12.02 170.02 32.72"></polygon><polygon class="cls-5" points="235.94 57.75 120.44 0 120.44 136.83 235.94 194.58 235.94 57.75"></polygon><polygon class="cls-6" points="226.09 83.32 110.58 25.57 110.58 140.52 226.09 198.27 226.09 83.32 226.09 83.32"></polygon><polygon class="cls-7" points="216.68 111.15 216.68 204.19 244.03 188.52 244.03 44.26 253.04 39.7 253.04 193 207.71 217.91 207.71 116.64 216.68 111.15"></polygon><polygon class="cls-4" points="207.71 116.64 82.31 53.94 82.31 153.21 207.71 217.91 207.71 116.64 207.71 116.64"></polygon><polygon class="cls-4" points="82.31 53.94 91.28 48.45 216.68 111.15 207.71 116.64 82.31 53.94"></polygon><path class="cls-8" d="M131.65,153c-4.78-14.25-14.58-27.51-26.15-33.84-16.87-9.23-31.14-.23-31.86,20.07,0,.56,0,1.12,0,1.69-4.32,1.17-7.28,5.48-7.51,12.06-.38,10.62,6.48,23.16,15.3,28l21.5,11.76,52.89,28.93c6.3,3.45,11.64.09,11.9-7.5s-4.63-16.54-10.93-20c-.19-.11-.37-.21-.56-.3a23.2,23.2,0,0,0,.76-5.25c.45-12.67-7.73-27.64-18.26-33.4a17.44,17.44,0,0,0-7-2.23Z"></path><path class="cls-4" d="M163.28,222.42h0l12.66-5.78h0c2.56-1.17,4.26-4.07,4.41-8.27.27-7.59-4.63-16.55-10.93-20-.19-.11-.38-.2-.57-.29a22.21,22.21,0,0,0,.76-5.26c.45-12.67-7.73-27.63-18.26-33.39a17.2,17.2,0,0,0-7-2.23c-4.79-14.26-14.59-27.52-26.16-33.85-7.52-4.11-14.52-4.6-20-2.08h0l-12.66,5.77h0c5.52-2.52,12.53-2,20,2.09,11.57,6.33,21.37,19.59,26.15,33.84a17.44,17.44,0,0,1,7,2.23c10.53,5.76,18.71,20.73,18.26,33.4a23.2,23.2,0,0,1-.76,5.25c.19.09.37.19.56.3,6.3,3.44,11.2,12.4,10.93,20-.14,4.2-1.85,7.11-4.41,8.28Z"></path><polygon class="cls-9" points="104.78 187.59 97.24 183.48 111.51 214.73 127.38 199.91 119.86 195.81 120.95 165.11 105.87 156.88 104.78 187.59 104.78 187.59"></polygon><polygon class="cls-9" points="113.27 168.61 120.95 165.11 105.87 156.88 98.19 160.39 113.27 168.61 113.27 168.61"></polygon><polygon class="cls-9" points="119.69 203.41 127.38 199.91 119.86 195.81 112.18 199.32 119.69 203.41 119.69 203.41"></polygon><polygon class="cls-9" points="97.07 191.08 104.75 187.58 97.24 183.48 89.56 186.99 97.07 191.08 97.07 191.08"></polygon><polygon class="cls-9" points="103.81 218.25 111.51 214.73 127.38 199.91 119.69 203.41 103.81 218.25 103.81 218.25"></polygon><polygon class="cls-8" points="97.1 191.1 89.56 186.99 103.83 218.24 119.69 203.41 112.18 199.32 113.27 168.61 98.19 160.39 97.1 191.1 97.1 191.1"></polygon></g></g></svg> 