<?xml version="1.0" encoding="UTF-8"?> <svg xmlns="http://www.w3.org/2000/svg" viewBox="0 0 314.03 287.95"><defs><style>.cls-1,.cls-16,.cls-8{fill:#e3e3e3;}.cls-11,.cls-18,.cls-2{fill:#2646ff;}.cls-3,.cls-9{fill:#878183;}.cls-4{fill:#ebebeb;}.cls-10,.cls-5,.cls-6{fill:none;}.cls-14,.cls-15,.cls-16,.cls-5,.cls-6,.cls-7,.cls-8,.cls-9{stroke:#000;}.cls-15,.cls-5{stroke-linejoin:round;}.cls-5{stroke-width:2px;}.cls-16,.cls-6,.cls-7,.cls-8,.cls-9{stroke-linejoin:bevel;}.cls-14,.cls-15,.cls-17,.cls-7{fill:#fff;}.cls-10{stroke:#2646ff;stroke-width:2.17px;}.cls-10,.cls-14{stroke-miterlimit:10;}.cls-11{font-size:9.24px;}.cls-11,.cls-18{font-family:DINCondensed-Bold, DIN Condensed;font-weight:700;}.cls-12{letter-spacing:-0.01em;}.cls-13{letter-spacing:-0.05em;}.cls-16{stroke-width:1.05px;}.cls-18{font-size:9.83px;}.cls-19{letter-spacing:-0.01em;}</style></defs><title>bad-examples</title><g id="Layer_2" data-name="Layer 2"><g id="Layer_2-2" data-name="Layer 2"><polygon class="cls-1" points="99.87 197.9 88.82 204.28 99.94 210.7 110.99 204.32 99.87 197.9"></polygon><polygon class="cls-1" points="133.5 217.32 122.46 223.7 133.85 230.28 144.9 223.9 133.5 217.32"></polygon><polygon class="cls-1" points="88.82 204.28 77.77 210.66 88.89 217.08 99.94 210.7 88.82 204.28"></polygon><polygon class="cls-1" points="122.46 223.7 111.41 230.08 122.8 236.66 133.85 230.28 122.46 223.7"></polygon><polygon class="cls-1" points="156.16 204.24 145.11 210.62 156.5 217.2 167.55 210.82 156.16 204.24"></polygon><polygon class="cls-1" points="167.5 210.78 156.46 217.16 167.85 223.74 178.9 217.36 167.5 210.78"></polygon><polygon class="cls-1" points="178.84 217.32 167.79 223.7 179.19 230.28 190.24 223.9 178.84 217.32"></polygon><polygon class="cls-1" points="190.21 223.86 179.16 230.24 190.56 236.82 201.61 230.44 190.21 223.86"></polygon><polygon class="cls-1" points="201.61 230.44 190.56 236.82 201.95 243.4 213 237.02 201.61 230.44"></polygon><polygon class="cls-1" points="122.52 184.82 111.47 191.2 122.59 197.62 133.64 191.24 122.52 184.82"></polygon><polygon class="cls-1" points="145.11 210.62 133.5 217.32 144.9 223.9 156.5 217.2 145.11 210.62"></polygon><polygon class="cls-1" points="111.47 191.2 99.87 197.9 110.99 204.32 122.59 197.62 111.47 191.2"></polygon><polygon class="cls-1" points="77.77 210.66 66.72 217.04 77.84 223.46 88.89 217.08 77.77 210.66"></polygon><polygon class="cls-1" points="111.41 230.08 100.36 236.46 111.75 243.04 122.8 236.66 111.41 230.08"></polygon><polygon class="cls-1" points="144.62 172.06 133.57 178.44 144.69 184.86 155.74 178.48 144.62 172.06"></polygon><polygon class="cls-1" points="133.57 178.44 122.52 184.82 133.64 191.24 144.69 184.86 133.57 178.44"></polygon><polygon class="cls-1" points="189.85 184.79 178.25 191.48 189.65 198.06 201.25 191.37 189.85 184.79"></polygon><polygon class="cls-1" points="201.25 191.37 189.65 198.06 200.77 204.48 212.37 197.78 201.25 191.37"></polygon><polygon class="cls-1" points="178.74 178.37 167.13 185.06 178.25 191.48 189.85 184.79 178.74 178.37"></polygon><polygon class="cls-1" points="212.37 197.78 200.77 204.48 212.16 211.06 223.77 204.36 212.37 197.78"></polygon><polygon class="cls-1" points="234.88 210.78 223.28 217.48 234.68 224.06 246.28 217.36 234.88 210.78"></polygon><polygon class="cls-1" points="223.77 204.36 212.16 211.06 223.28 217.48 234.88 210.78 223.77 204.36"></polygon><polygon class="cls-1" points="156.22 165.37 144.62 172.06 155.74 178.48 167.34 171.79 156.22 165.37"></polygon><polygon class="cls-1" points="167.34 171.79 155.74 178.48 167.13 185.06 178.74 178.37 167.34 171.79"></polygon><polygon class="cls-1" points="133.43 152.21 121.83 158.91 133.22 165.49 144.82 158.79 133.43 152.21"></polygon><polygon class="cls-1" points="144.82 158.79 133.22 165.49 144.62 172.06 156.22 165.37 144.82 158.79"></polygon><polygon class="cls-1" points="122.31 145.79 110.71 152.49 121.83 158.91 133.43 152.21 122.31 145.79"></polygon><polygon class="cls-1" points="111.2 139.37 99.6 146.06 110.71 152.49 122.31 145.79 111.2 139.37"></polygon><polygon class="cls-1" points="100.08 132.93 88.48 139.63 99.6 146.05 111.2 139.35 100.08 132.93"></polygon><polygon class="cls-1" points="89 126.47 77.4 133.17 88.51 139.59 100.11 132.89 89 126.47"></polygon><polygon class="cls-2" points="109.36 204.63 97.79 211.31 109.73 218.21 121.31 211.52 109.36 204.63"></polygon><polygon class="cls-2" points="121.31 211.52 109.73 218.21 121.38 224.93 132.96 218.25 121.31 211.52"></polygon><polygon class="cls-2" points="97.79 211.31 86.21 218 98.15 224.89 109.73 218.21 97.79 211.31"></polygon><polygon class="cls-2" points="109.73 218.21 98.15 224.89 109.8 231.62 121.38 224.93 109.73 218.21"></polygon><polygon class="cls-2" points="145.04 197.82 133.46 204.5 145.11 211.23 156.69 204.54 145.04 197.82"></polygon><polygon class="cls-2" points="133.1 190.93 121.52 197.61 133.46 204.5 145.04 197.82 133.1 190.93"></polygon><polygon class="cls-2" points="133.46 204.5 121.31 211.52 132.96 218.25 145.11 211.23 133.46 204.5"></polygon><polygon class="cls-2" points="121.52 197.61 109.36 204.63 121.31 211.52 133.46 204.5 121.52 197.61"></polygon><polygon class="cls-2" points="86.21 218 74.64 224.68 86.58 231.57 98.15 224.89 86.21 218"></polygon><polygon class="cls-2" points="98.15 224.89 86.58 231.57 98.23 238.3 109.8 231.62 98.15 224.89"></polygon><polygon class="cls-2" points="203.43 204.8 191.85 211.48 203.79 218.38 215.37 211.69 203.43 204.8"></polygon><polygon class="cls-2" points="215.37 211.69 203.79 218.38 215.44 225.1 227.02 218.42 215.37 211.69"></polygon><polygon class="cls-2" points="191.78 198.07 180.2 204.75 191.85 211.48 203.43 204.8 191.78 198.07"></polygon><polygon class="cls-2" points="179.84 191.18 168.26 197.86 180.2 204.75 191.78 198.07 179.84 191.18"></polygon><polygon class="cls-2" points="168.19 184.45 156.61 191.14 168.26 197.86 179.84 191.18 168.19 184.45"></polygon><polygon class="cls-2" points="227.02 218.42 215.44 225.1 227.38 232 238.96 225.31 227.02 218.42"></polygon><polygon class="cls-2" points="156.25 177.56 144.67 184.24 156.61 191.14 168.19 184.45 156.25 177.56"></polygon><polygon class="cls-2" points="215.44 225.1 203.87 231.78 215.81 238.68 227.38 232 215.44 225.1"></polygon><polygon class="cls-2" points="203.79 218.38 192.22 225.06 203.87 231.78 215.44 225.1 203.79 218.38"></polygon><polygon class="cls-2" points="191.85 211.48 180.28 218.17 192.22 225.06 203.79 218.38 191.85 211.48"></polygon><polygon class="cls-2" points="144.67 184.24 133.1 190.93 145.04 197.82 156.61 191.14 144.67 184.24"></polygon><polygon class="cls-2" points="168.26 197.86 156.69 204.54 168.63 211.44 180.2 204.75 168.26 197.86"></polygon><polygon class="cls-2" points="180.2 204.75 168.63 211.44 180.28 218.17 191.85 211.48 180.2 204.75"></polygon><polygon class="cls-2" points="156.61 191.14 145.04 197.82 156.69 204.54 168.26 197.86 156.61 191.14"></polygon><polygon class="cls-3" points="157.03 269.7 157.03 269.7 313.03 179.61 313.03 197.86 157.03 287.95 157.03 287.95 157.03 269.7"></polygon><polygon class="cls-4" points="1 179.61 157.03 269.7 157.03 269.7 157.03 287.95 157.03 287.95 1 197.86 1 179.61"></polygon><polygon class="cls-5" points="157.01 89.13 157.01 89.13 313.03 179.61 157.03 269.7 157.03 269.7 1 179.61 157.01 89.13"></polygon><polygon class="cls-6" points="166.07 0.43 166.07 0.43 213.38 27.87 166.07 55.19 166.07 55.19 118.76 27.87 166.07 0.43"></polygon><polygon class="cls-7" points="166.07 163.89 166.07 163.89 118.76 136.57 118.76 27.87 166.07 55.19 166.07 163.89"></polygon><polygon class="cls-8" points="166.04 163.89 166.04 163.89 213.36 136.57 213.36 27.87 166.04 55.19 166.04 163.89"></polygon><polygon class="cls-9" points="155.66 140.77 124.56 122.79 124.56 139.64 155.66 157.62 155.66 140.77"></polygon><polygon class="cls-2" points="168.32 29.81 179.84 23.21 177.29 21.75 172.85 24.5 167.98 21.53 172.51 18.94 170.13 17.65 158.71 24.2 161.12 25.45 165.39 23 170.22 25.58 165.78 28.3 168.32 29.81"></polygon><path class="cls-10" d="M180.91,15.19c5.18,2.25,11.65,9.19,3.32,15.09-9.39,6.67-23.27,4.4-29.75.86-6.08-3.32-8-11.34,3.06-16.21A28,28,0,0,1,180.91,15.19Z"></path><path class="cls-7" d="M117.24,145.78h0a1.34,1.34,0,0,1-1.33-1.33V122.93h2.66v21.52A1.34,1.34,0,0,1,117.24,145.78Z"></path><path class="cls-7" d="M143.33,160.45h0a1.34,1.34,0,0,1-1.33-1.33V137.6h2.66v21.52A1.34,1.34,0,0,1,143.33,160.45Z"></path><polygon class="cls-7" points="125.46 114.63 160.2 134.77 146.22 142.86 146.22 142.86 111.48 122.8 125.46 114.63"></polygon><polygon class="cls-8" points="160.2 134.77 160.2 138.76 146.22 146.85 146.22 142.86 160.2 134.77"></polygon><polygon class="cls-8" points="111.48 122.8 111.48 126.79 146.22 146.85 146.22 142.86 111.48 122.8"></polygon><polygon class="cls-7" points="153.87 30.04 153.87 22.05 137.46 12.52 137.46 21.05 128.62 16.47 128.62 29.45 161.91 48.2 161.91 34.68 153.87 30.04"></polygon><text class="cls-11" transform="matrix(1, 0.57, 0, 1, 139.83, 23.95)"><tspan class="cls-12">B</tspan><tspan x="3.82" y="0">AD</tspan><tspan x="-7.74" y="8.7">HOSPI</tspan><tspan class="cls-13" x="9.53" y="8.7">T</tspan><tspan x="12.08" y="8.7">AL</tspan></text><path class="cls-8" d="M76.48,192.32,75,200.46s-.54,2.41-7.65,2.41S59.76,199,59.76,199l-1.48-8.63"></path><path class="cls-8" d="M92.71,186.14s-.44,5.75-3.33,6.57a6,6,0,0,1-6.45-1.53"></path><path class="cls-8" d="M49.21,186.75s-.54,4-5.24,4-5.9-5.36-5.9-5.36l-.82-7"></path><path class="cls-8" d="M34.37,125.34C20.48,139.23,20.76,161.59,37.14,178s45.14,19.6,59,5.71,15.53-37.45-.85-53.83S50.52,109.19,34.37,125.34Z"></path><path class="cls-14" d="M57.46,162.43l.69-.16a99.75,99.75,0,0,1,7.42-11.36,40.36,40.36,0,0,1,8-7.72s-.45-4.77-4.43-5.44-9.85,3.44-9.85,3.44l-1.59,4.48L57.15,151l-1.46,7.66.39,2.3Z"></path><path class="cls-15" d="M91.8,132.84l-2.32.36,1-7.65,11.06-10.26,3.51-1.76s1.19-1.35,1.84,2.63c1.05,6.5-1.49,14.22-2.81,16.85a15.63,15.63,0,0,1-2.46,3.77l-3.51-4Z"></path><path class="cls-8" d="M89.48,133.2s-3.06-3.44-3.06-5.9a5.46,5.46,0,0,1,1.15-3.66l10.77-7.48s5.17-4.21,6.61-3.34c1.07.65.76,1.31.76,1.31S89.1,128.83,89.48,133.2Z"></path><path class="cls-3" d="M76.15,130.42c-1.14,1.1-2.29.6-3.6-.44a52.54,52.54,0,0,0-9.35-6.45,75.5,75.5,0,0,0-8.58-3.61s-.85-.29-.45-.91,1.69-.82,2.79-.82,3.67.24,11.25,4.74,8.18,6.19,8.18,6.19A1.14,1.14,0,0,1,76.15,130.42Z"></path><path class="cls-8" d="M70.14,138s-7.27-3.39-11.09.16a17.72,17.72,0,0,0-5.85,15c.66,6.28,4.26,9.28,4.26,9.28a49.39,49.39,0,0,1,3.17-16.06c3.17-8.09,7.33-8.3,7.33-8.3Z"></path><circle class="cls-2" cx="83.32" cy="161.15" r="3.31"></circle><ellipse class="cls-2" cx="101.83" cy="150.27" rx="1.86" ry="3.31" transform="translate(-35.45 31.51) rotate(-15.01)"></ellipse><path class="cls-8" d="M112.43,165.27l-6.08-4.19s-9.21.77-13.78,7.32-6.78,8.3-6.78,11.72,2.59,4.88,3.89,5.64S96,188.47,96,188.47"></path><path class="cls-16" d="M94.28,187.23c3.51,2.84,10,.83,15.35-5.29s6.41-13,3-16-10-.83-15.35,5.29S91.69,185.13,94.28,187.23Z"></path><ellipse class="cls-3" cx="99.04" cy="178.37" rx="4.29" ry="2.4" transform="translate(-91.99 249.99) rotate(-81.51)"></ellipse><ellipse class="cls-3" cx="108.54" cy="172.92" rx="4.11" ry="2.4" transform="translate(-78.51 254.75) rotate(-81.51)"></ellipse><path class="cls-7" d="M71.56,119.08l4.43-3.3a14.21,14.21,0,0,0,.56-4c0-2.44-.25-4.19-2.58-8.31a17.75,17.75,0,0,0-6.14-6.37,7.8,7.8,0,0,0-3.28-1,5.05,5.05,0,0,0-1.57.22l-4.51,3.34,6.46,11.77Z"></path><path class="cls-8" d="M61.5,98.61c-3.48,0-5,3.06-5,6.83,0,4.26,5.09,14.79,11.82,14.79,4.74,0,4.91-4.17,4.91-6.12C73.24,107.79,67.2,98.61,61.5,98.61Z"></path><polygon class="cls-17" points="193.64 49.58 203.57 43.98 203.57 55.07 193.64 60.67 193.64 49.58"></polygon><polygon class="cls-17" points="193.64 67.33 203.57 61.72 203.57 72.81 193.64 78.42 193.64 67.33"></polygon><polygon class="cls-17" points="193.64 85.07 203.57 79.46 203.57 90.55 193.64 96.16 193.64 85.07"></polygon><polygon class="cls-17" points="193.64 102.81 203.57 97.21 203.57 108.3 193.64 113.9 193.64 102.81"></polygon><polygon class="cls-17" points="193.64 120.55 203.57 114.95 203.57 126.04 193.64 131.64 193.64 120.55"></polygon><polygon class="cls-7" points="236.5 99.27 236.5 99.27 273.9 120.97 236.5 142.56 236.5 142.56 199.09 120.97 236.5 99.27"></polygon><polygon class="cls-7" points="236.5 142.56 273.9 120.97 273.9 178.66 236.5 200.25 236.5 142.56"></polygon><polygon class="cls-8" points="236.32 142.56 198.92 120.97 198.92 178.66 236.32 200.25 236.32 142.56"></polygon><path class="cls-7" d="M223.27,207.2h0a2.16,2.16,0,0,1-2.16-2.15v-40h4.31v40A2.16,2.16,0,0,1,223.27,207.2Z"></path><path class="cls-7" d="M204.28,196.29h0a2.16,2.16,0,0,1-2.16-2.16V158.06h4.31v36.07A2.16,2.16,0,0,1,204.28,196.29Z"></path><polygon class="cls-3" points="218.89 176.13 210.07 171.04 210.07 184.64 218.89 189.73 218.89 176.13"></polygon><path class="cls-7" d="M188,187h0a2.16,2.16,0,0,1-2.16-2.16V149.94h4.31v34.89A2.16,2.16,0,0,1,188,187Z"></path><polygon class="cls-7" points="181.76 150.62 222.68 174.12 202.61 138.68 181.76 150.62"></polygon><polygon class="cls-8" points="202.61 138.68 219.06 129.09 239.71 164.39 222.68 174.12 202.61 138.68"></polygon><text class="cls-18" transform="matrix(1, 0.57, 0, 1, 193.05, 153.64)"><tspan class="cls-19">B</tspan><tspan x="4.07" y="0">ANK</tspan></text><polygon class="cls-1" points="155.56 58.63 145.63 53.03 145.63 64.12 155.56 69.72 155.56 58.63"></polygon><polygon class="cls-1" points="155.56 76.38 145.63 70.77 145.63 81.86 155.56 87.47 155.56 76.38"></polygon><polygon class="cls-1" points="155.56 94.12 145.63 88.51 145.63 99.6 155.56 105.21 155.56 94.12"></polygon><polygon class="cls-1" points="155.56 111.86 145.63 106.26 145.63 117.35 155.56 122.95 155.56 111.86"></polygon><polygon class="cls-1" points="137.88 48.58 127.96 42.98 127.96 54.07 137.88 59.67 137.88 48.58"></polygon><polygon class="cls-1" points="137.88 66.33 127.96 60.72 127.96 71.81 137.88 77.42 137.88 66.33"></polygon><polygon class="cls-1" points="137.88 84.07 127.96 78.46 127.96 89.55 137.88 95.16 137.88 84.07"></polygon><polygon class="cls-1" points="137.88 101.81 127.96 96.21 127.96 107.3 137.88 112.9 137.88 101.81"></polygon><polygon class="cls-17" points="175.97 59.63 185.9 54.03 185.9 65.12 175.97 70.72 175.97 59.63"></polygon><polygon class="cls-17" points="175.97 77.38 185.9 71.77 185.9 82.86 175.97 88.47 175.97 77.38"></polygon><polygon class="cls-17" points="175.97 95.12 185.9 89.51 185.9 100.6 175.97 106.21 175.97 95.12"></polygon><polygon class="cls-17" points="175.97 112.86 185.9 107.26 185.9 118.35 175.97 123.95 175.97 112.86"></polygon><polygon class="cls-17" points="175.97 130.6 185.9 125 185.9 136.09 175.97 141.69 175.97 130.6"></polygon></g></g></svg> 