<?xml version="1.0" encoding="UTF-8"?> <svg xmlns="http://www.w3.org/2000/svg" xmlns:xlink="http://www.w3.org/1999/xlink" viewBox="0 0 313.03 292.21"><defs><style>.cls-1,.cls-10,.cls-12{fill:none;}.cls-2,.cls-5{fill:#878183;}.cls-3{fill:#ebebeb;}.cls-14,.cls-4,.cls-6{fill:#fff;}.cls-10,.cls-12,.cls-14,.cls-4,.cls-5,.cls-6,.cls-7{stroke:#000;}.cls-12,.cls-4,.cls-5,.cls-6,.cls-7{stroke-linejoin:bevel;}.cls-4{stroke-width:2px;}.cls-5,.cls-7{stroke-width:1.06px;}.cls-12,.cls-6{stroke-width:1.39px;}.cls-7{fill:#e3e3e3;}.cls-8{clip-path:url(#clip-path);}.cls-9{fill:#2646ff;fill-rule:evenodd;}.cls-10,.cls-14{stroke-linejoin:round;stroke-width:1.39px;}.cls-11{clip-path:url(#clip-path-2);}.cls-13{clip-path:url(#clip-path-3);}.cls-15{clip-path:url(#clip-path-4);}</style><clipPath id="clip-path"><path id="path847" class="cls-1" d="M106.56,180c-6.13-3.54-11.11-12.17-11.12-19.26V113.6l14.83,8.56v4.28c0,7.12,5,15.71,11.12,19.27s11.13.69,11.13-6.42V135l14.83,8.57v17.12l3.7,2.14c6.16,3.56,11.13,12.15,11.13,19.26s-5,10-11.13,6.43l-3.7-2.14V203.5Z"></path></clipPath><clipPath id="clip-path-2"><path id="path849" class="cls-1" d="M198.62,220.42c0,7.09-5,10-11.12,6.42l-40.78-23.55V186.17l3.71,2.14c6.16,3.56,11.12.69,11.12-6.42s-5-15.71-11.12-19.27l-3.71-2.14V143.36l14.83,8.56v-4.28c0-7.11,5-10,11.12-6.42s11.12,12.15,11.12,19.26v4.28l14.83,8.57Z"></path></clipPath><clipPath id="clip-path-3"><path id="path845" class="cls-1" d="M69.89,21c0-7.1,5-10,11.13-6.42L121.8,38.09V55.21l-3.71-2.14C111.93,49.52,107,52.38,107,59.5s5,15.7,11.12,19.26l3.71,2.14V98L107,89.46v4.28c0,7.12-5,10-11.12,6.42S84.72,88,84.72,80.9V76.62L69.89,68.06Z"></path></clipPath><clipPath id="clip-path-4"><path id="path843" class="cls-1" d="M187.5,107.12c6.06,3.57,11,12.17,11.12,19.27v47.09l-14.83-8.57v-4.28c0-7.11-5-15.7-11.12-19.26s-11.12-.69-11.12,6.42v4.28l-14.83-8.56V126.39L143,124.25c-6.16-3.56-11.12-12.15-11.12-19.27s5-10,11.12-6.42l3.71,2.14V83.58Z"></path></clipPath></defs><title>bad-solutions</title><g id="Layer_2" data-name="Layer 2"><g id="Layer_2-2" data-name="Layer 2"><polygon class="cls-2" points="156.53 273.96 156.53 273.96 312.53 183.88 312.53 202.13 156.53 292.21 156.53 292.21 156.53 273.96"></polygon><polygon class="cls-3" points="0.5 183.88 156.53 273.96 156.53 273.96 156.53 292.21 156.53 292.21 0.5 202.13 0.5 183.88"></polygon><polygon class="cls-4" points="156.51 93.39 156.51 93.39 312.53 183.88 156.53 273.96 156.53 273.96 0.5 183.88 156.51 93.39"></polygon><path id="path921" class="cls-5" d="M115.8,101.2l14.83,8.56V114c0,7.11,3,13.3,8.2,17.12L132.52,135l21.14-12.2,3,15.41v17.12l3.7,2.14c6.17,3.56,11.13,12.15,11.13,19.27,0,3.42-1.15,5.85-3,7.07l-.08.05-.3.17-9.42,5.44-2-3v11.7l-9.28,5.36-3.67-12.83L115.85,174.6c-6.15-3.55-11.13-12.17-11.13-19.27V119l-9.28-5.36Z"></path><path id="path923" class="cls-5" d="M177.12,134.34a10.22,10.22,0,0,1,4.83,1.52c6.16,3.56,11.13,12.15,11.13,19.27v4.28l28.69.48V207c0,3.51-1.25,6.15-3.45,7.3L194.54,228c.22-.06-.67-3.93-1.9-8.91L167.38,204.5,156,197.93v-3.52l-9.28-8.24,9.28-5.36,3.71,2.14c6.16,3.56,11.12.69,11.12-6.42s-5-15.71-11.12-19.26L156,155.13V153.3l-9.28-9.94L156,138l10.59,6.11-1.88-3.63,8.89-5.09a5,5,0,0,1,1-.59l0,0a5.83,5.83,0,0,1,2.46-.44Z"></path><path id="rect822" class="cls-6" d="M169.87,70.58l40.78,23.55c6.14,3.54,11.12,12.17,11.12,19.26v47.09l-23.15,13-22.48-38.94c-3.19.41-5.31,3.24-5.31,7.89v4.28l-9.28,5.36-2.14-11.95-3.41-2V121l-3.71-2.14a21.09,21.09,0,0,1-5.82-5.25v0a26.76,26.76,0,0,1-1.77-2.58l-9.21-13.45,8.23-4.69a5.41,5.41,0,0,1,1.55-.88c1.92-.69,4.35-.36,7,1.17l-5.55-9.61Z"></path><path id="path847-2" data-name="path847" class="cls-7" d="M106.56,180c-6.13-3.54-11.11-12.17-11.12-19.26V113.6l14.83,8.56v4.28c0,7.12,5,15.71,11.12,19.27s11.13.69,11.13-6.42V135l14.83,8.57v17.12l3.7,2.14c6.16,3.56,11.13,12.15,11.13,19.26s-5,10-11.13,6.43l-3.7-2.14V203.5Z"></path><g class="cls-8"><path class="cls-9" d="M147.79,106.35c-16.1-8-29.17,2.22-29.17,22.91s13.07,44,29.17,52.08S177,179.12,177,158.42s-13.07-44-29.16-52.07Z"></path></g><path id="path847-3" data-name="path847" class="cls-10" d="M106.56,180c-6.13-3.54-11.11-12.17-11.12-19.26V113.6l14.83,8.56v4.28c0,7.12,5,15.71,11.12,19.27s11.13.69,11.13-6.42V135l14.83,8.57v17.12l3.7,2.14c6.16,3.56,11.13,12.15,11.13,19.26s-5,10-11.13,6.43l-3.7-2.14V203.5Z"></path><path id="path849-2" data-name="path849" class="cls-7" d="M198.62,220.42c0,7.09-5,10-11.12,6.42l-40.78-23.55V186.17l3.71,2.14c6.16,3.56,11.12.69,11.12-6.42s-5-15.71-11.12-19.27l-3.71-2.14V143.36l14.83,8.56v-4.28c0-7.11,5-10,11.12-6.42s11.12,12.15,11.12,19.26v4.28l14.83,8.57Z"></path><g class="cls-11"><path class="cls-9" d="M146.72,106.09c-16.09-8-29.16,2.21-29.16,22.91s13.07,44,29.16,52.07,29.16-2.22,29.16-22.91-13.06-44-29.16-52.07Z"></path></g><path id="path849-3" data-name="path849" class="cls-12" d="M198.62,220.42c0,7.09-5,10-11.12,6.42l-40.78-23.55V186.17l3.71,2.14c6.16,3.56,11.12.69,11.12-6.42s-5-15.71-11.12-19.27l-3.71-2.14V143.36l14.83,8.56v-4.28c0-7.11,5-10,11.12-6.42s11.12,12.15,11.12,19.26v4.28l14.83,8.57Z"></path><path id="path919" class="cls-6" d="M100,.7A10,10,0,0,1,105,2.21l39.28,22.6v17.4l-22.52,13s7.69-13.39,7.69-8.63c0,7.12,5,15.71,11.12,19.27L144.32,68V85.11L121.8,98l-5.55-11.09v1.46c0,3.51-1.22,6-3.19,7.17l0,0,0,0-9.8,5.62-2.54-10.1C96.72,86.89,94,80.81,94,75.54V71.26L79.17,62.7V21.13l-6-7.37L97.28,1.37h0A5.71,5.71,0,0,1,100,.7Z"></path><path id="path845-2" data-name="path845" class="cls-7" d="M69.89,21c0-7.1,5-10,11.13-6.42L121.8,38.09V55.21l-3.71-2.14C111.93,49.52,107,52.38,107,59.5s5,15.7,11.12,19.26l3.71,2.14V98L107,89.46v4.28c0,7.12-5,10-11.12,6.42S84.72,88,84.72,80.9V76.62L69.89,68.06Z"></path><g class="cls-13"><path class="cls-9" d="M122.24,60.92c-16.1-8.05-29.17,2.22-29.17,22.91s13.07,44,29.17,52.08S151.4,133.69,151.4,113s-13.07-44-29.16-52.08Z"></path></g><path id="path845-3" data-name="path845" class="cls-12" d="M69.89,21c0-7.1,5-10,11.13-6.42L121.8,38.09V55.21l-3.71-2.14C111.93,49.52,107,52.38,107,59.5s5,15.7,11.12,19.26l3.71,2.14V98L107,89.46v4.28c0,7.12-5,10-11.12,6.42S84.72,88,84.72,80.9V76.62L69.89,68.06Z"></path><polygon class="cls-14" points="121.8 98 144.32 84.99 144.32 67.99 121.8 80.88 121.8 98"></polygon><polygon class="cls-14" points="121.8 55.22 144.32 42.21 144.32 24.81 121.8 38.09 121.8 55.22"></polygon><path id="path843-2" data-name="path843" class="cls-6" d="M187.5,107.12c6.06,3.57,11,12.17,11.12,19.27v47.09l-14.83-8.57v-4.28c0-7.11-5-15.7-11.12-19.26s-11.12-.69-11.12,6.42v4.28l-14.83-8.56V126.39L143,124.25c-6.16-3.56-11.12-12.15-11.12-19.27s5-10,11.12-6.42l3.71,2.14V83.58Z"></path><path id="path843-3" data-name="path843" class="cls-7" d="M187.5,107.12c6.06,3.57,11,12.17,11.12,19.27v47.09l-14.83-8.57v-4.28c0-7.11-5-15.7-11.12-19.26s-11.12-.69-11.12,6.42v4.28l-14.83-8.56V126.39L143,124.25c-6.16-3.56-11.12-12.15-11.12-19.27s5-10,11.12-6.42l3.71,2.14V83.58Z"></path><g class="cls-15"><path class="cls-9" d="M146.72,106.35c-16.09-8-29.16,2.22-29.16,22.91s13.07,44,29.16,52.08,29.16-2.22,29.16-22.92-13.06-44-29.16-52.07Z"></path></g><path id="path843-4" data-name="path843" class="cls-12" d="M187.5,107.12c6.06,3.57,11,12.17,11.12,19.27v47.09l-14.83-8.57v-4.28c0-7.11-5-15.7-11.12-19.26s-11.12-.69-11.12,6.42v4.28l-14.83-8.56V126.39L143,124.25c-6.16-3.56-11.12-12.15-11.12-19.27s5-10,11.12-6.42l3.71,2.14V83.58Z"></path><polygon class="cls-14" points="110.27 122.16 130.63 109.76 115.8 101.2 95.44 113.6 110.27 122.16"></polygon><polygon class="cls-14" points="146.72 143.36 146.72 126.39 132.52 135 146.72 143.36"></polygon><path class="cls-5" d="M129.78,50.6S132.85,62.49,144.32,68L121.8,80.88s-11.15-4.54-14.08-16.29,4.3-13,4.3-13,4.75-.81,9.78,3.57Z"></path></g></g></svg> 